# Blender v2.79 (sub 0) OBJ File: ''
# www.blender.org
mtllib collision.mtl
o Hackers_merged_out_002_Hackers_merged_out.002
v 14.403800 6.904850 -2.575149
v -9.534959 6.904850 8.835152
v -9.534959 0.020000 -2.575150
v -9.534960 0.020000 8.835152
v 14.403800 0.020000 -2.575150
v 14.403800 0.019993 8.835150
v 14.403800 6.904848 8.835150
v -9.534959 6.904850 -2.575149
vt -2.136276 1.797891
vt 3.460206 -0.869646
vt 3.460206 1.797891
vt -2.136276 -0.869647
vt -11.267480 0.952425
vt 0.701900 -2.490000
vt 0.701900 0.952425
vt 0.787575 0.510000
vt -4.917575 3.952424
vt 0.787575 3.952425
vt -4.917576 0.952425
vt 0.787575 -2.490000
vt 0.787575 0.952425
vt 12.701900 0.952424
vt 0.732520 -2.490000
vt 0.732521 0.952425
vt -11.267480 -2.490000
vt -4.917575 0.509997
vt -4.917576 -2.490000
vt 12.701900 -2.490003
vt -3.714570 -1.781843
vt 5.051123 2.396285
vt -3.714570 2.396285
vt 5.051123 -1.781843
vn 0.0000 1.0000 0.0000
vn 0.0000 -0.0000 1.0000
vn -1.0000 0.0000 0.0000
vn 1.0000 0.0000 0.0000
vn -0.0000 0.0000 -1.0000
vn -0.0000 -1.0000 0.0000
usemtl Floor_Metal
s off
f 3/1/1 6/2/1 5/3/1
f 3/1/1 4/4/1 6/2/1
usemtl WallMetalPanels
f 8/5/2 5/6/2 1/7/2
f 5/8/3 7/9/3 1/10/3
f 2/11/4 3/12/4 8/13/4
f 7/14/5 4/15/5 2/16/5
f 8/5/2 3/17/2 5/6/2
f 5/8/3 6/18/3 7/9/3
f 2/11/4 4/19/4 3/12/4
f 7/14/5 6/20/5 4/15/5
usemtl WoodRoof
f 8/21/6 7/22/6 2/23/6
f 8/21/6 1/24/6 7/22/6
