# Blender v2.78 (sub 0) OBJ File: ''
# www.blender.org
mtllib picframe.mtl
o model
v 0.271643 -0.448379 -0.016049
v 0.271643 0.441621 -0.016049
v 0.271642 0.441621 0.013951
v 0.271642 -0.448379 0.013952
v -0.268357 0.441621 0.013951
v -0.268357 0.441621 -0.016049
v -0.268357 -0.448379 -0.016049
v -0.268357 -0.448379 0.013951
v 0.271642 0.441621 0.013951
v -0.268357 0.441621 0.013951
v -0.268357 -0.448379 0.013951
v 0.271642 -0.448379 0.013952
v 0.242213 -0.419874 -0.016048
v 0.242213 0.413117 -0.016049
v 0.271643 0.441621 -0.016049
v 0.271643 -0.448379 -0.016049
v -0.268357 -0.448379 0.013951
v -0.268357 -0.448379 -0.016049
v 0.271643 -0.448379 -0.016049
v 0.271642 -0.448379 0.013952
v 0.271643 0.441621 -0.016049
v -0.268357 0.441621 -0.016049
v -0.268357 0.441621 0.013951
v 0.271642 0.441621 0.013951
v 0.242213 0.413117 -0.016049
v -0.238928 0.413117 -0.016049
v -0.268357 0.441621 -0.016049
v 0.271643 0.441621 -0.016049
v -0.238928 0.413117 -0.016049
v -0.238928 -0.419874 -0.016049
v -0.268357 -0.448379 -0.016049
v -0.268357 0.441621 -0.016049
v -0.238928 -0.419874 -0.016049
v 0.242213 -0.419874 -0.016048
v 0.271643 -0.448379 -0.016049
v -0.268357 -0.448379 -0.016049
v 0.242213 -0.419874 0.003952
v 0.242213 0.413117 0.003951
v 0.242213 0.413117 -0.016049
v 0.242213 -0.419874 -0.016048
v 0.242213 0.413117 0.003951
v -0.238928 0.413117 0.003951
v -0.238928 0.413117 -0.016049
v 0.242213 0.413117 -0.016049
v -0.238928 0.413117 0.003951
v -0.238928 -0.419874 0.003952
v -0.238928 -0.419874 -0.016049
v -0.238928 0.413117 -0.016049
v -0.238928 -0.419874 0.003952
v 0.242213 -0.419874 0.003952
v 0.242213 -0.419874 -0.016048
v -0.238928 -0.419874 -0.016049
v 0.221642 -0.398379 0.003951
v 0.221642 0.391621 0.003951
v 0.242213 0.413117 0.003951
v 0.242213 -0.419874 0.003952
v 0.221642 0.391621 0.003951
v -0.218358 0.391621 0.003951
v -0.238928 0.413117 0.003951
v 0.242213 0.413117 0.003951
v -0.218358 0.391621 0.003951
v -0.218358 -0.398379 0.003951
v -0.238928 -0.419874 0.003952
v -0.238928 0.413117 0.003951
v -0.218358 -0.398379 0.003951
v 0.221642 -0.398379 0.003951
v 0.242213 -0.419874 0.003952
v -0.238928 -0.419874 0.003952
v -0.218358 -0.398379 0.003951
v -0.218358 0.391621 0.003951
v 0.221642 0.391621 0.003951
v 0.221642 -0.398379 0.003951
v 0.244978 0.423379 -0.008503
v 0.244974 0.423366 0.011252
v 0.245623 -0.416239 0.010694
v 0.245626 -0.416226 -0.009062
v -0.248263 -0.416621 0.010600
v -0.248911 0.422984 0.011159
v -0.248908 0.422997 -0.008596
v -0.248259 -0.416608 -0.009155
v 0.245623 -0.416239 0.010694
v -0.248263 -0.416621 0.010600
v -0.248259 -0.416608 -0.009155
v 0.245626 -0.416226 -0.009062
v -0.248908 0.422997 -0.008596
v -0.248911 0.422984 0.011159
v 0.244974 0.423366 0.011252
v 0.244978 0.423379 -0.008503
v 0.244974 0.423366 0.011252
v -0.248911 0.422984 0.011159
v -0.248263 -0.416621 0.010600
v 0.245623 -0.416239 0.010694
v -0.248259 -0.416608 -0.009155
v -0.248908 0.422997 -0.008596
v 0.244978 0.423379 -0.008503
v 0.245626 -0.416226 -0.009062
vn 0.0000 0.0000 -1.0000
vn 0.0002 0.0007 -1.0000
vn 1.0000 0.0000 0.0000
vn -1.0000 0.0000 0.0000
vn -0.0000 0.0000 1.0000
vn 0.0000 -1.0000 -0.0000
vn 0.0000 1.0000 -0.0000
vn 1.0000 0.0008 0.0002
vn -1.0000 -0.0008 -0.0002
vn 0.0008 -1.0000 -0.0007
vn -0.0008 1.0000 0.0007
vn -0.0002 -0.0007 1.0000
usemtl mat15
s off
f 69//1 70//1 71//1 72//1
usemtl mat25
f 93//2 94//2 95//2 96//2
usemtl mat21
f 53//1 54//1 55//1 56//1
f 57//1 58//1 59//1 60//1
f 61//1 62//1 63//1 64//1
f 65//1 66//1 67//1 68//1
usemtl mat23
f 1//3 2//3 3//3 4//3
f 5//4 6//4 7//4 8//4
f 9//5 10//5 11//5 12//5
f 13//1 14//1 15//1 16//1
f 17//6 18//6 19//6 20//6
f 21//7 22//7 23//7 24//7
f 25//1 26//1 27//1 28//1
f 29//1 30//1 31//1 32//1
f 33//1 34//1 35//1 36//1
f 37//4 38//4 39//4 40//4
f 41//6 42//6 43//6 44//6
f 45//3 46//3 47//3 48//3
f 49//7 50//7 51//7 52//7
usemtl mat24
f 73//8 74//8 75//8 76//8
f 77//9 78//9 79//9 80//9
f 81//10 82//10 83//10 84//10
f 85//11 86//11 87//11 88//11
f 89//12 90//12 91//12 92//12
