# Blender v2.78 (sub 0) OBJ File: ''
# www.blender.org
mtllib wallshelves.mtl
o model.035
v 0.715042 -0.600336 -0.369883
v 0.715042 -0.600336 0.190117
v 0.715042 -0.650336 0.190117
v 0.715042 -0.650336 -0.369883
v -0.714958 -0.650336 0.190117
v -0.714958 -0.600336 0.190117
v -0.714958 -0.600336 -0.369883
v -0.714958 -0.650336 -0.369883
v 0.715042 -0.650336 0.190117
v -0.714958 -0.650336 0.190117
v -0.714958 -0.650336 -0.369883
v 0.715042 -0.650336 -0.369883
v -0.714958 -0.600336 -0.369883
v -0.714958 -0.600336 0.190117
v 0.715042 -0.600336 0.190117
v 0.715042 -0.600336 -0.369883
v -0.714958 -0.650336 -0.369883
v -0.714958 -0.600336 -0.369883
v 0.715042 -0.600336 -0.369883
v 0.715042 -0.650336 -0.369883
v 0.715042 -0.600336 0.190117
v -0.714958 -0.600336 0.190117
v -0.714958 -0.650336 0.190117
v 0.715042 -0.650336 0.190117
v 0.715042 0.209664 -0.262179
v 0.715042 0.209664 0.197821
v 0.715042 0.159664 0.197821
v 0.715042 0.159664 -0.262179
v -0.714958 0.159664 0.197821
v -0.714958 0.209664 0.197821
v -0.714958 0.209664 -0.262179
v -0.714958 0.159664 -0.262179
v 0.715042 0.159664 0.197821
v -0.714958 0.159664 0.197821
v -0.714958 0.159664 -0.262179
v 0.715042 0.159664 -0.262179
v -0.714958 0.209664 -0.262179
v -0.714958 0.209664 0.197821
v 0.715042 0.209664 0.197821
v 0.715042 0.209664 -0.262179
v -0.714958 0.159664 -0.262179
v -0.714958 0.209664 -0.262179
v 0.715042 0.209664 -0.262179
v 0.715042 0.159664 -0.262179
v 0.715042 0.209664 0.197821
v -0.714958 0.209664 0.197821
v -0.714958 0.159664 0.197821
v 0.715042 0.159664 0.197821
v 0.720042 0.969664 -0.172179
v 0.720042 0.969664 0.207821
v 0.720042 0.919664 0.207821
v 0.720042 0.919664 -0.172179
v -0.709958 0.919664 0.207821
v -0.709958 0.969664 0.207821
v -0.709958 0.969664 -0.172179
v -0.709958 0.919664 -0.172179
v 0.720042 0.919664 0.207821
v -0.709958 0.919664 0.207821
v -0.709958 0.919664 -0.172179
v 0.720042 0.919664 -0.172179
v -0.709958 0.969664 -0.172179
v -0.709958 0.969664 0.207821
v 0.720042 0.969664 0.207821
v 0.720042 0.969664 -0.172179
v -0.709958 0.919664 -0.172179
v -0.709958 0.969664 -0.172179
v 0.720042 0.969664 -0.172179
v 0.720042 0.919664 -0.172179
v 0.720042 0.969664 0.207821
v -0.709958 0.969664 0.207821
v -0.709958 0.919664 0.207821
v 0.720042 0.919664 0.207821
v 0.565042 -0.650336 -0.189883
v 0.565042 -0.650336 0.190117
v 0.565042 -0.700336 0.190117
v 0.565042 -0.700336 0.145584
v 0.565042 -0.700336 -0.149614
v 0.565042 -0.700336 -0.189883
v 0.515042 -0.700336 -0.152628
v 0.515042 -0.700336 0.152446
v 0.515042 -0.700336 0.190117
v 0.515042 -0.650336 0.190117
v 0.515042 -0.650336 -0.189883
v 0.515042 -0.700336 -0.189883
v 0.565042 -0.760336 -0.189883
v 0.515042 -0.760336 -0.189883
v 0.515042 -0.700336 -0.189883
v 0.565042 -0.700336 -0.189883
v 0.515042 -0.650336 -0.189883
v 0.515042 -0.650336 0.190117
v 0.565042 -0.650336 0.190117
v 0.565042 -0.650336 -0.189883
v 0.515042 -0.700336 -0.189883
v 0.515042 -0.650336 -0.189883
v 0.565042 -0.650336 -0.189883
v 0.565042 -0.700336 -0.189883
v 0.565042 -0.650336 0.190117
v 0.515042 -0.650336 0.190117
v 0.515042 -0.700336 0.190117
v 0.565042 -0.700336 0.190117
v 0.565042 -0.700336 -0.149614
v 0.565042 -0.700336 0.145584
v 0.515042 -0.700336 0.152446
v 0.515042 -0.700336 -0.152628
v 0.515042 -1.010336 0.152447
v 0.515042 -1.010336 0.190117
v 0.515042 -0.700336 0.190117
v 0.515042 -0.700336 0.152446
v 0.515042 -1.010336 0.190117
v 0.565042 -1.010336 0.190117
v 0.565042 -0.700336 0.190117
v 0.515042 -0.700336 0.190117
v 0.565042 -1.010336 0.190117
v 0.565042 -1.010336 0.145584
v 0.565042 -0.700336 0.145584
v 0.565042 -0.700336 0.190117
v 0.565042 -1.010336 0.145584
v 0.515042 -1.010336 0.152447
v 0.515042 -0.700336 0.152446
v 0.565042 -0.700336 0.145584
v 0.565042 -1.010336 0.145584
v 0.565042 -1.010336 0.190117
v 0.515042 -1.010336 0.190117
v 0.515042 -1.010336 0.152447
v 0.515042 -0.760336 -0.189883
v 0.515042 -0.760336 -0.152628
v 0.515042 -0.700336 -0.152628
v 0.515042 -0.700336 -0.189883
v 0.515042 -0.760336 -0.152628
v 0.565042 -0.760336 -0.149614
v 0.565042 -0.700336 -0.149614
v 0.515042 -0.700336 -0.152628
v 0.565042 -0.760336 -0.149614
v 0.565042 -0.760336 -0.189883
v 0.565042 -0.700336 -0.189883
v 0.565042 -0.700336 -0.149614
v 0.565042 -0.760336 -0.149614
v 0.515042 -0.760336 -0.152628
v 0.515042 -0.760336 -0.189883
v 0.565042 -0.760336 -0.189883
v 0.555241 -0.718493 -0.158901
v 0.555042 -0.910336 0.180117
v 0.555330 -0.961554 0.167073
v 0.556497 -0.761934 -0.183624
v 0.525334 -0.962165 0.166625
v 0.525245 -0.719105 -0.159349
v 0.526500 -0.762546 -0.184072
v 0.555330 -0.961554 0.167073
v 0.525334 -0.962165 0.166625
v 0.526500 -0.762546 -0.184072
v 0.556497 -0.761934 -0.183624
v 0.525245 -0.719105 -0.159349
v 0.525042 -0.910336 0.180117
v 0.555042 -0.910336 0.180117
v 0.555241 -0.718493 -0.158901
v 0.526500 -0.762546 -0.184072
v 0.525245 -0.719105 -0.159349
v 0.555241 -0.718493 -0.158901
v 0.556497 -0.761934 -0.183624
v 0.555042 -0.910336 0.180117
v 0.525042 -0.910336 0.180117
v 0.525334 -0.962165 0.166625
v 0.555330 -0.961554 0.167073
v 0.525334 -0.962165 0.166625
v 0.525042 -0.910336 0.180117
v 0.525245 -0.719105 -0.159349
v -0.519957 -0.650336 -0.187587
v -0.519957 -0.650336 0.192413
v -0.519957 -0.700336 0.192413
v -0.519957 -0.700336 0.147880
v -0.519957 -0.700336 -0.147318
v -0.519957 -0.700336 -0.187587
v -0.569958 -0.700336 -0.150332
v -0.569958 -0.700336 0.154742
v -0.569958 -0.700336 0.192413
v -0.569958 -0.650336 0.192413
v -0.569958 -0.650336 -0.187587
v -0.569958 -0.700336 -0.187587
v -0.519957 -0.760336 -0.187588
v -0.569958 -0.760336 -0.187588
v -0.569958 -0.700336 -0.187587
v -0.519957 -0.700336 -0.187587
v -0.569958 -0.650336 -0.187587
v -0.569958 -0.650336 0.192413
v -0.519957 -0.650336 0.192413
v -0.519957 -0.650336 -0.187587
v -0.569958 -0.700336 -0.187587
v -0.569958 -0.650336 -0.187587
v -0.519957 -0.650336 -0.187587
v -0.519957 -0.700336 -0.187587
v -0.519957 -0.650336 0.192413
v -0.569958 -0.650336 0.192413
v -0.569958 -0.700336 0.192413
v -0.519957 -0.700336 0.192413
v -0.519957 -0.700336 -0.147318
v -0.519957 -0.700336 0.147880
v -0.569958 -0.700336 0.154742
v -0.569958 -0.700336 -0.150332
v -0.569958 -1.010336 0.154743
v -0.569958 -1.010336 0.192413
v -0.569958 -0.700336 0.192413
v -0.569958 -0.700336 0.154742
v -0.569958 -1.010336 0.192413
v -0.519958 -1.010336 0.192413
v -0.519957 -0.700336 0.192413
v -0.569958 -0.700336 0.192413
v -0.519958 -1.010336 0.192413
v -0.519957 -1.010336 0.147880
v -0.519957 -0.700336 0.147880
v -0.519957 -0.700336 0.192413
v -0.519957 -1.010336 0.147880
v -0.569958 -1.010336 0.154743
v -0.569958 -0.700336 0.154742
v -0.519957 -0.700336 0.147880
v -0.519957 -1.010336 0.147880
v -0.519958 -1.010336 0.192413
v -0.569958 -1.010336 0.192413
v -0.569958 -1.010336 0.154743
v -0.569958 -0.760336 -0.187588
v -0.569958 -0.760336 -0.150332
v -0.569958 -0.700336 -0.150332
v -0.569958 -0.700336 -0.187587
v -0.569958 -0.760336 -0.150332
v -0.519957 -0.760336 -0.147318
v -0.519957 -0.700336 -0.147318
v -0.569958 -0.700336 -0.150332
v -0.519957 -0.760336 -0.147318
v -0.519957 -0.760336 -0.187588
v -0.519957 -0.700336 -0.187587
v -0.519957 -0.700336 -0.147318
v -0.519957 -0.760336 -0.147318
v -0.569958 -0.760336 -0.150332
v -0.569958 -0.760336 -0.187588
v -0.519957 -0.760336 -0.187588
v -0.529759 -0.718492 -0.156605
v -0.529957 -0.910336 0.182412
v -0.529670 -0.961553 0.169369
v -0.528503 -0.761934 -0.181328
v -0.559666 -0.962165 0.168921
v -0.559755 -0.719104 -0.157053
v -0.558500 -0.762546 -0.181776
v -0.529670 -0.961553 0.169369
v -0.559666 -0.962165 0.168921
v -0.558500 -0.762546 -0.181776
v -0.528503 -0.761934 -0.181328
v -0.559755 -0.719104 -0.157053
v -0.559958 -0.910336 0.182412
v -0.529957 -0.910336 0.182412
v -0.529759 -0.718492 -0.156605
v -0.558500 -0.762546 -0.181776
v -0.559755 -0.719104 -0.157053
v -0.529759 -0.718492 -0.156605
v -0.528503 -0.761934 -0.181328
v -0.529957 -0.910336 0.182412
v -0.559958 -0.910336 0.182412
v -0.559666 -0.962165 0.168921
v -0.529670 -0.961553 0.169369
v -0.559666 -0.962165 0.168921
v -0.559958 -0.910336 0.182412
v -0.559755 -0.719104 -0.157053
v 0.565042 0.159664 -0.182179
v 0.565042 0.159664 0.197821
v 0.565042 0.109664 0.197821
v 0.565042 0.109664 0.153288
v 0.565042 0.109664 -0.141910
v 0.565042 0.109664 -0.182179
v 0.515042 0.109664 -0.144924
v 0.515042 0.109664 0.160150
v 0.515042 0.109664 0.197821
v 0.515042 0.159664 0.197821
v 0.515042 0.159664 -0.182179
v 0.515042 0.109664 -0.182179
v 0.565042 0.049664 -0.182179
v 0.515042 0.049664 -0.182179
v 0.515042 0.109664 -0.182179
v 0.565042 0.109664 -0.182179
v 0.515042 0.159664 -0.182179
v 0.515042 0.159664 0.197821
v 0.565042 0.159664 0.197821
v 0.565042 0.159664 -0.182179
v 0.515042 0.109664 -0.182179
v 0.515042 0.159664 -0.182179
v 0.565042 0.159664 -0.182179
v 0.565042 0.109664 -0.182179
v 0.565042 0.159664 0.197821
v 0.515042 0.159664 0.197821
v 0.515042 0.109664 0.197821
v 0.565042 0.109664 0.197821
v 0.565042 0.109664 -0.141910
v 0.565042 0.109664 0.153288
v 0.515042 0.109664 0.160150
v 0.515042 0.109664 -0.144924
v 0.515042 -0.200336 0.160151
v 0.515042 -0.200336 0.197821
v 0.515042 0.109664 0.197821
v 0.515042 0.109664 0.160150
v 0.515042 -0.200336 0.197821
v 0.565042 -0.200336 0.197821
v 0.565042 0.109664 0.197821
v 0.515042 0.109664 0.197821
v 0.565042 -0.200336 0.197821
v 0.565042 -0.200336 0.153288
v 0.565042 0.109664 0.153288
v 0.565042 0.109664 0.197821
v 0.565042 -0.200336 0.153288
v 0.515042 -0.200336 0.160151
v 0.515042 0.109664 0.160150
v 0.565042 0.109664 0.153288
v 0.565042 -0.200336 0.153288
v 0.565042 -0.200336 0.197821
v 0.515042 -0.200336 0.197821
v 0.515042 -0.200336 0.160151
v 0.515042 0.049664 -0.182179
v 0.515042 0.049664 -0.144924
v 0.515042 0.109664 -0.144924
v 0.515042 0.109664 -0.182179
v 0.515042 0.049664 -0.144924
v 0.565042 0.049664 -0.141910
v 0.565042 0.109664 -0.141910
v 0.515042 0.109664 -0.144924
v 0.565042 0.049664 -0.141910
v 0.565042 0.049664 -0.182179
v 0.565042 0.109664 -0.182179
v 0.565042 0.109664 -0.141910
v 0.565042 0.049664 -0.141910
v 0.515042 0.049664 -0.144924
v 0.515042 0.049664 -0.182179
v 0.565042 0.049664 -0.182179
v 0.555241 0.091507 -0.151197
v 0.555042 -0.100336 0.187821
v 0.555330 -0.151554 0.174777
v 0.556497 0.048066 -0.175920
v 0.525334 -0.152166 0.174329
v 0.525245 0.090895 -0.151645
v 0.526500 0.047454 -0.176368
v 0.555330 -0.151554 0.174777
v 0.525334 -0.152166 0.174329
v 0.526500 0.047454 -0.176368
v 0.556497 0.048066 -0.175920
v 0.525245 0.090895 -0.151645
v 0.525042 -0.100336 0.187821
v 0.555042 -0.100336 0.187821
v 0.555241 0.091507 -0.151197
v 0.526500 0.047454 -0.176368
v 0.525245 0.090895 -0.151645
v 0.555241 0.091507 -0.151197
v 0.556497 0.048066 -0.175920
v 0.555042 -0.100336 0.187821
v 0.525042 -0.100336 0.187821
v 0.525334 -0.152166 0.174329
v 0.555330 -0.151554 0.174777
v 0.525334 -0.152166 0.174329
v 0.525042 -0.100336 0.187821
v 0.525245 0.090895 -0.151645
v -0.519957 0.159664 -0.179883
v -0.519957 0.159664 0.200117
v -0.519957 0.109664 0.200117
v -0.519957 0.109664 0.155584
v -0.519957 0.109664 -0.139614
v -0.519957 0.109664 -0.179883
v -0.569957 0.109664 -0.142628
v -0.569957 0.109664 0.162446
v -0.569957 0.109664 0.200117
v -0.569957 0.159664 0.200117
v -0.569957 0.159664 -0.179883
v -0.569957 0.109664 -0.179883
v -0.519957 0.049664 -0.179884
v -0.569957 0.049664 -0.179884
v -0.569957 0.109664 -0.179883
v -0.519957 0.109664 -0.179883
v -0.569957 0.159664 -0.179883
v -0.569957 0.159664 0.200117
v -0.519957 0.159664 0.200117
v -0.519957 0.159664 -0.179883
v -0.569957 0.109664 -0.179883
v -0.569957 0.159664 -0.179883
v -0.519957 0.159664 -0.179883
v -0.519957 0.109664 -0.179883
v -0.519957 0.159664 0.200117
v -0.569957 0.159664 0.200117
v -0.569957 0.109664 0.200117
v -0.519957 0.109664 0.200117
v -0.519957 0.109664 -0.139614
v -0.519957 0.109664 0.155584
v -0.569957 0.109664 0.162446
v -0.569957 0.109664 -0.142628
v -0.569957 -0.200336 0.162447
v -0.569957 -0.200336 0.200117
v -0.569957 0.109664 0.200117
v -0.569957 0.109664 0.162446
v -0.569957 -0.200336 0.200117
v -0.519957 -0.200336 0.200117
v -0.519957 0.109664 0.200117
v -0.569957 0.109664 0.200117
v -0.519957 -0.200336 0.200117
v -0.519957 -0.200336 0.155584
v -0.519957 0.109664 0.155584
v -0.519957 0.109664 0.200117
v -0.519957 -0.200336 0.155584
v -0.569957 -0.200336 0.162447
v -0.569957 0.109664 0.162446
v -0.519957 0.109664 0.155584
v -0.519957 -0.200336 0.155584
v -0.519957 -0.200336 0.200117
v -0.569957 -0.200336 0.200117
v -0.569957 -0.200336 0.162447
v -0.569957 0.049664 -0.179884
v -0.569957 0.049664 -0.142628
v -0.569957 0.109664 -0.142628
v -0.569957 0.109664 -0.179883
v -0.569957 0.049664 -0.142628
v -0.519957 0.049664 -0.139614
v -0.519957 0.109664 -0.139614
v -0.569957 0.109664 -0.142628
v -0.519957 0.049664 -0.139614
v -0.519957 0.049664 -0.179884
v -0.519957 0.109664 -0.179883
v -0.519957 0.109664 -0.139614
v -0.519957 0.049664 -0.139614
v -0.569957 0.049664 -0.142628
v -0.569957 0.049664 -0.179884
v -0.519957 0.049664 -0.179884
v -0.529759 0.091507 -0.148901
v -0.529957 -0.100336 0.190116
v -0.529669 -0.151554 0.177073
v -0.528503 0.048066 -0.173624
v -0.559666 -0.152166 0.176624
v -0.559755 0.090895 -0.149349
v -0.558500 0.047454 -0.174072
v -0.529669 -0.151554 0.177073
v -0.559666 -0.152166 0.176624
v -0.558500 0.047454 -0.174072
v -0.528503 0.048066 -0.173624
v -0.559755 0.090895 -0.149349
v -0.559957 -0.100336 0.190116
v -0.529957 -0.100336 0.190116
v -0.529759 0.091507 -0.148901
v -0.558500 0.047454 -0.174072
v -0.559755 0.090895 -0.149349
v -0.529759 0.091507 -0.148901
v -0.528503 0.048066 -0.173624
v -0.529957 -0.100336 0.190116
v -0.559957 -0.100336 0.190116
v -0.559666 -0.152166 0.176624
v -0.529669 -0.151554 0.177073
v -0.559666 -0.152166 0.176624
v -0.559957 -0.100336 0.190116
v -0.559755 0.090895 -0.149349
v 0.570042 0.919664 -0.172179
v 0.570042 0.919664 0.207821
v 0.570042 0.869664 0.207821
v 0.570042 0.869664 0.163288
v 0.570042 0.869664 -0.131910
v 0.570042 0.869664 -0.172179
v 0.520042 0.869664 -0.134924
v 0.520042 0.869664 0.170151
v 0.520042 0.869664 0.207821
v 0.520042 0.919664 0.207821
v 0.520042 0.919664 -0.172179
v 0.520042 0.869664 -0.172179
v 0.570042 0.809664 -0.172179
v 0.520042 0.809664 -0.172179
v 0.520042 0.869664 -0.172179
v 0.570042 0.869664 -0.172179
v 0.520042 0.919664 -0.172179
v 0.520042 0.919664 0.207821
v 0.570042 0.919664 0.207821
v 0.570042 0.919664 -0.172179
v 0.520042 0.869664 -0.172179
v 0.520042 0.919664 -0.172179
v 0.570042 0.919664 -0.172179
v 0.570042 0.869664 -0.172179
v 0.570042 0.919664 0.207821
v 0.520042 0.919664 0.207821
v 0.520042 0.869664 0.207821
v 0.570042 0.869664 0.207821
v 0.570042 0.869664 -0.131910
v 0.570042 0.869664 0.163288
v 0.520042 0.869664 0.170151
v 0.520042 0.869664 -0.134924
v 0.520042 0.559664 0.170151
v 0.520042 0.559664 0.207821
v 0.520042 0.869664 0.207821
v 0.520042 0.869664 0.170151
v 0.520042 0.559664 0.207821
v 0.570042 0.559664 0.207821
v 0.570042 0.869664 0.207821
v 0.520042 0.869664 0.207821
v 0.570042 0.559664 0.207821
v 0.570042 0.559664 0.163288
v 0.570042 0.869664 0.163288
v 0.570042 0.869664 0.207821
v 0.570042 0.559664 0.163288
v 0.520042 0.559664 0.170151
v 0.520042 0.869664 0.170151
v 0.570042 0.869664 0.163288
v 0.570042 0.559664 0.163288
v 0.570042 0.559664 0.207821
v 0.520042 0.559664 0.207821
v 0.520042 0.559664 0.170151
v 0.520042 0.809664 -0.172179
v 0.520042 0.809664 -0.134924
v 0.520042 0.869664 -0.134924
v 0.520042 0.869664 -0.172179
v 0.520042 0.809664 -0.134924
v 0.570042 0.809664 -0.131910
v 0.570042 0.869664 -0.131910
v 0.520042 0.869664 -0.134924
v 0.570042 0.809664 -0.131910
v 0.570042 0.809664 -0.172179
v 0.570042 0.869664 -0.172179
v 0.570042 0.869664 -0.131910
v 0.570042 0.809664 -0.131910
v 0.520042 0.809664 -0.134924
v 0.520042 0.809664 -0.172179
v 0.570042 0.809664 -0.172179
v 0.560241 0.851508 -0.141197
v 0.560042 0.659664 0.197821
v 0.560330 0.608447 0.184777
v 0.561497 0.808066 -0.165920
v 0.530334 0.607835 0.184329
v 0.530245 0.850896 -0.141645
v 0.531500 0.807454 -0.166368
v 0.560330 0.608447 0.184777
v 0.530334 0.607835 0.184329
v 0.531500 0.807454 -0.166368
v 0.561497 0.808066 -0.165920
v 0.530245 0.850896 -0.141645
v 0.530042 0.659664 0.197821
v 0.560042 0.659664 0.197821
v 0.560241 0.851508 -0.141197
v 0.531500 0.807454 -0.166368
v 0.530245 0.850896 -0.141645
v 0.560241 0.851508 -0.141197
v 0.561497 0.808066 -0.165920
v 0.560042 0.659664 0.197821
v 0.530042 0.659664 0.197821
v 0.530334 0.607835 0.184329
v 0.560330 0.608447 0.184777
v 0.530334 0.607835 0.184329
v 0.530042 0.659664 0.197821
v 0.530245 0.850896 -0.141645
v -0.514957 0.919664 -0.169884
v -0.514957 0.919664 0.210116
v -0.514957 0.869664 0.210116
v -0.514957 0.869664 0.165584
v -0.514957 0.869664 -0.129614
v -0.514957 0.869664 -0.169884
v -0.564958 0.869664 -0.132628
v -0.564958 0.869664 0.172446
v -0.564958 0.869664 0.210116
v -0.564958 0.919664 0.210116
v -0.564958 0.919664 -0.169884
v -0.564958 0.869664 -0.169884
v -0.514957 0.809664 -0.169884
v -0.564958 0.809664 -0.169884
v -0.564958 0.869664 -0.169884
v -0.514957 0.869664 -0.169884
v -0.564958 0.919664 -0.169884
v -0.564958 0.919664 0.210116
v -0.514957 0.919664 0.210116
v -0.514957 0.919664 -0.169884
v -0.564958 0.869664 -0.169884
v -0.564958 0.919664 -0.169884
v -0.514957 0.919664 -0.169884
v -0.514957 0.869664 -0.169884
v -0.514957 0.919664 0.210116
v -0.564958 0.919664 0.210116
v -0.564958 0.869664 0.210116
v -0.514957 0.869664 0.210116
v -0.514957 0.869664 -0.129614
v -0.514957 0.869664 0.165584
v -0.564958 0.869664 0.172446
v -0.564958 0.869664 -0.132628
v -0.564958 0.559664 0.172447
v -0.564958 0.559664 0.210117
v -0.564958 0.869664 0.210116
v -0.564958 0.869664 0.172446
v -0.564958 0.559664 0.210117
v -0.514957 0.559664 0.210117
v -0.514957 0.869664 0.210116
v -0.564958 0.869664 0.210116
v -0.514957 0.559664 0.210117
v -0.514957 0.559664 0.165584
v -0.514957 0.869664 0.165584
v -0.514957 0.869664 0.210116
v -0.514957 0.559664 0.165584
v -0.564958 0.559664 0.172447
v -0.564958 0.869664 0.172446
v -0.514957 0.869664 0.165584
v -0.514957 0.559664 0.165584
v -0.514957 0.559664 0.210117
v -0.564958 0.559664 0.210117
v -0.564958 0.559664 0.172447
v -0.564958 0.809664 -0.169884
v -0.564958 0.809664 -0.132628
v -0.564958 0.869664 -0.132628
v -0.564958 0.869664 -0.169884
v -0.564958 0.809664 -0.132628
v -0.514957 0.809664 -0.129614
v -0.514957 0.869664 -0.129614
v -0.564958 0.869664 -0.132628
v -0.514957 0.809664 -0.129614
v -0.514957 0.809664 -0.169884
v -0.514957 0.869664 -0.169884
v -0.514957 0.869664 -0.129614
v -0.514957 0.809664 -0.129614
v -0.564958 0.809664 -0.132628
v -0.564958 0.809664 -0.169884
v -0.514957 0.809664 -0.169884
v -0.524759 0.851508 -0.138901
v -0.524957 0.659664 0.200116
v -0.524670 0.608447 0.187073
v -0.523503 0.808066 -0.163624
v -0.554666 0.607835 0.186624
v -0.554755 0.850896 -0.139349
v -0.553500 0.807454 -0.164072
v -0.524670 0.608447 0.187073
v -0.554666 0.607835 0.186624
v -0.553500 0.807454 -0.164072
v -0.523503 0.808066 -0.163624
v -0.554755 0.850896 -0.139349
v -0.554957 0.659664 0.200116
v -0.524957 0.659664 0.200116
v -0.524759 0.851508 -0.138901
v -0.553500 0.807454 -0.164072
v -0.554755 0.850896 -0.139349
v -0.524759 0.851508 -0.138901
v -0.523503 0.808066 -0.163624
v -0.524957 0.659664 0.200116
v -0.554957 0.659664 0.200116
v -0.554666 0.607835 0.186624
v -0.524670 0.608447 0.187073
v -0.554666 0.607835 0.186624
v -0.554957 0.659664 0.200116
v -0.554755 0.850896 -0.139349
vn 1.0000 0.0000 0.0000
vn -1.0000 0.0000 0.0000
vn 0.0000 -1.0000 0.0000
vn 0.0000 1.0000 0.0000
vn 0.0000 0.0000 -1.0000
vn 0.0000 0.0000 1.0000
vn -0.1360 -0.0000 -0.9907
vn -0.0602 -0.0000 0.9982
vn 0.9999 0.0127 0.0092
vn -0.9997 -0.0204 -0.0149
vn 0.0251 -0.8688 -0.4945
vn -0.0126 0.8707 0.4916
vn 0.0029 0.4947 -0.8691
vn -0.0047 -0.2494 0.9684
vn -1.0000 -0.0048 -0.0033
vn 0.9999 0.0126 0.0092
usemtl mat18.009
s off
f 1//1 2//1 3//1 4//1
f 5//2 6//2 7//2 8//2
f 9//3 10//3 11//3 12//3
f 13//4 14//4 15//4 16//4
f 17//5 18//5 19//5 20//5
f 21//6 22//6 23//6 24//6
f 25//1 26//1 27//1 28//1
f 29//2 30//2 31//2 32//2
f 33//3 34//3 35//3 36//3
f 37//4 38//4 39//4 40//4
f 41//5 42//5 43//5 44//5
f 45//6 46//6 47//6 48//6
f 49//1 50//1 51//1 52//1
f 53//2 54//2 55//2 56//2
f 57//3 58//3 59//3 60//3
f 61//4 62//4 63//4 64//4
f 65//5 66//5 67//5 68//5
f 69//6 70//6 71//6 72//6
usemtl mat22.006
f 73//1 74//1 75//1 76//1 77//1 78//1
f 79//2 80//2 81//2 82//2 83//2 84//2
f 85//5 86//5 87//5 88//5
f 89//4 90//4 91//4 92//4
f 93//5 94//5 95//5 96//5
f 97//6 98//6 99//6 100//6
f 101//3 102//3 103//3 104//3
f 105//2 106//2 107//2 108//2
f 109//6 110//6 111//6 112//6
f 113//1 114//1 115//1 116//1
f 117//7 118//7 119//7 120//7
f 121//3 122//3 123//3 124//3
f 125//2 126//2 127//2 128//2
f 129//8 130//8 131//8 132//8
f 133//1 134//1 135//1 136//1
f 137//3 138//3 139//3 140//3
f 141//9 142//9 143//9 144//9
f 145//10 146//10 147//10
f 148//11 149//11 150//11 151//11
f 152//12 153//12 154//12 155//12
f 156//13 157//13 158//13 159//13
f 160//14 161//14 162//14 163//14
f 164//15 165//15 166//15
f 167//1 168//1 169//1 170//1 171//1 172//1
f 173//2 174//2 175//2 176//2 177//2 178//2
f 179//5 180//5 181//5 182//5
f 183//4 184//4 185//4 186//4
f 187//5 188//5 189//5 190//5
f 191//6 192//6 193//6 194//6
f 195//3 196//3 197//3 198//3
f 199//2 200//2 201//2 202//2
f 203//6 204//6 205//6 206//6
f 207//1 208//1 209//1 210//1
f 211//7 212//7 213//7 214//7
f 215//3 216//3 217//3 218//3
f 219//2 220//2 221//2 222//2
f 223//8 224//8 225//8 226//8
f 227//1 228//1 229//1 230//1
f 231//3 232//3 233//3 234//3
f 235//9 236//9 237//9 238//9
f 239//10 240//10 241//10
f 242//11 243//11 244//11 245//11
f 246//12 247//12 248//12 249//12
f 250//13 251//13 252//13 253//13
f 254//14 255//14 256//14 257//14
f 258//15 259//15 260//15
f 261//1 262//1 263//1 264//1 265//1 266//1
f 267//2 268//2 269//2 270//2 271//2 272//2
f 273//5 274//5 275//5 276//5
f 277//4 278//4 279//4 280//4
f 281//5 282//5 283//5 284//5
f 285//6 286//6 287//6 288//6
f 289//3 290//3 291//3 292//3
f 293//2 294//2 295//2 296//2
f 297//6 298//6 299//6 300//6
f 301//1 302//1 303//1 304//1
f 305//7 306//7 307//7 308//7
f 309//3 310//3 311//3 312//3
f 313//2 314//2 315//2 316//2
f 317//8 318//8 319//8 320//8
f 321//1 322//1 323//1 324//1
f 325//3 326//3 327//3 328//3
f 329//9 330//9 331//9 332//9
f 333//10 334//10 335//10
f 336//11 337//11 338//11 339//11
f 340//12 341//12 342//12 343//12
f 344//13 345//13 346//13 347//13
f 348//14 349//14 350//14 351//14
f 352//15 353//15 354//15
f 355//1 356//1 357//1 358//1 359//1 360//1
f 361//2 362//2 363//2 364//2 365//2 366//2
f 367//5 368//5 369//5 370//5
f 371//4 372//4 373//4 374//4
f 375//5 376//5 377//5 378//5
f 379//6 380//6 381//6 382//6
f 383//3 384//3 385//3 386//3
f 387//2 388//2 389//2 390//2
f 391//6 392//6 393//6 394//6
f 395//1 396//1 397//1 398//1
f 399//7 400//7 401//7 402//7
f 403//3 404//3 405//3 406//3
f 407//2 408//2 409//2 410//2
f 411//8 412//8 413//8 414//8
f 415//1 416//1 417//1 418//1
f 419//3 420//3 421//3 422//3
f 423//9 424//9 425//9 426//9
f 427//10 428//10 429//10
f 430//11 431//11 432//11 433//11
f 434//12 435//12 436//12 437//12
f 438//13 439//13 440//13 441//13
f 442//14 443//14 444//14 445//14
f 446//15 447//15 448//15
f 449//1 450//1 451//1 452//1 453//1 454//1
f 455//2 456//2 457//2 458//2 459//2 460//2
f 461//5 462//5 463//5 464//5
f 465//4 466//4 467//4 468//4
f 469//5 470//5 471//5 472//5
f 473//6 474//6 475//6 476//6
f 477//3 478//3 479//3 480//3
f 481//2 482//2 483//2 484//2
f 485//6 486//6 487//6 488//6
f 489//1 490//1 491//1 492//1
f 493//7 494//7 495//7 496//7
f 497//3 498//3 499//3 500//3
f 501//2 502//2 503//2 504//2
f 505//8 506//8 507//8 508//8
f 509//1 510//1 511//1 512//1
f 513//3 514//3 515//3 516//3
f 517//16 518//16 519//16 520//16
f 521//10 522//10 523//10
f 524//11 525//11 526//11 527//11
f 528//12 529//12 530//12 531//12
f 532//13 533//13 534//13 535//13
f 536//14 537//14 538//14 539//14
f 540//15 541//15 542//15
f 543//1 544//1 545//1 546//1 547//1 548//1
f 549//2 550//2 551//2 552//2 553//2 554//2
f 555//5 556//5 557//5 558//5
f 559//4 560//4 561//4 562//4
f 563//5 564//5 565//5 566//5
f 567//6 568//6 569//6 570//6
f 571//3 572//3 573//3 574//3
f 575//2 576//2 577//2 578//2
f 579//6 580//6 581//6 582//6
f 583//1 584//1 585//1 586//1
f 587//7 588//7 589//7 590//7
f 591//3 592//3 593//3 594//3
f 595//2 596//2 597//2 598//2
f 599//8 600//8 601//8 602//8
f 603//1 604//1 605//1 606//1
f 607//3 608//3 609//3 610//3
f 611//9 612//9 613//9 614//9
f 615//10 616//10 617//10
f 618//11 619//11 620//11 621//11
f 622//12 623//12 624//12 625//12
f 626//13 627//13 628//13 629//13
f 630//14 631//14 632//14 633//14
f 634//15 635//15 636//15
