{
    "asset" : {
        "generator" : "Khronos glTF Blender I/O v0.9.35",
        "version" : "2.0"
    },
    "scene" : 0,
    "scenes" : [
        {
            "name" : "Scene",
            "nodes" : [
                0
            ]
        }
    ],
    "nodes" : [
        {
            "mesh" : 0,
            "name" : "node_beanbag2_12846",
            "rotation" : [
                0,
                -0.5735269784927368,
                0,
                0
            ],
            "scale" : [
                0.6000000238418579,
                0.6000000238418579,
                0.8000001311302185
            ],
            "translation" : [
                0,
                0.4096938371658325,
                0
            ]
        }
    ],
    "materials" : [
        {
            "emissiveFactor" : [
                0,
                0,
                0
            ],
            "name" : "Box012_795.000",
            "pbrMetallicRoughness" : {
                "baseColorFactor" : [
                    0.800000011920929,
                    0.800000011920929,
                    0.800000011920929,
                    1
                ],
                "baseColorTexture" : {
                    "index" : 0,
                    "texCoord" : 0
                },
                "metallicFactor" : 0,
                "roughnessFactor" : 1
            }
        }
    ],
    "meshes" : [
        {
            "name" : "mesh_Hackers_merged_out_001_12358beanbag2.004",
            "primitives" : [
                {
                    "attributes" : {
                        "POSITION" : 0,
                        "NORMAL" : 1,
                        "TEXCOORD_0" : 2
                    },
                    "indices" : 3,
                    "material" : 0
                }
            ]
        }
    ],
    "textures" : [
        {
            "source" : 0
        }
    ],
    "images" : [
        {
            "mimeType" : "image/jpeg",
            "name" : "Image_6",
            "uri" : "Image_6.jpg"
        }
    ],
    "accessors" : [
        {
            "bufferView" : 0,
            "componentType" : 5126,
            "count" : 1906,
            "max" : [
                1.3701549768447876,
                1.0591319799423218,
                1.2020139694213867
            ],
            "min" : [
                -1.5297549962997437,
                -0.717766523361206,
                -0.9340757727622986
            ],
            "type" : "VEC3"
        },
        {
            "bufferView" : 1,
            "componentType" : 5126,
            "count" : 1906,
            "type" : "VEC3"
        },
        {
            "bufferView" : 2,
            "componentType" : 5126,
            "count" : 1906,
            "type" : "VEC2"
        },
        {
            "bufferView" : 3,
            "componentType" : 5123,
            "count" : 7872,
            "type" : "SCALAR"
        }
    ],
    "bufferViews" : [
        {
            "buffer" : 0,
            "byteLength" : 22872,
            "byteOffset" : 0
        },
        {
            "buffer" : 0,
            "byteLength" : 22872,
            "byteOffset" : 22872
        },
        {
            "buffer" : 0,
            "byteLength" : 15248,
            "byteOffset" : 45744
        },
        {
            "buffer" : 0,
            "byteLength" : 15744,
            "byteOffset" : 60992
        }
    ],
    "buffers" : [
        {
            "byteLength" : 76736,
            "uri" : "beanbag.bin"
        }
    ]
}
