{
    "asset" : {
        "generator" : "Khronos glTF Blender I/O v0.9.35",
        "version" : "2.0"
    },
    "scene" : 0,
    "scenes" : [
        {
            "name" : "Scene",
            "nodes" : [
                0
            ]
        }
    ],
    "nodes" : [
        {
            "mesh" : 0,
            "name" : "node_default_-1214.011",
            "rotation" : [
                0,
                -0.7071067094802856,
                -0.7071068286895752,
                -3.0908619663705394e-08
            ],
            "translation" : [
                0,
                1.4248499870300293,
                0
            ]
        }
    ],
    "materials" : [
        {
            "emissiveFactor" : [
                0,
                0,
                0
            ],
            "name" : "Box012_795.003",
            "pbrMetallicRoughness" : {
                "baseColorFactor" : [
                    0.6399999260902405,
                    0.6399999260902405,
                    0.6399999260902405,
                    1
                ],
                "baseColorTexture" : {
                    "index" : 0,
                    "texCoord" : 0
                },
                "metallicFactor" : 0,
                "roughnessFactor" : 0.5
            }
        },
        {
            "emissiveFactor" : [
                0,
                0,
                0
            ],
            "name" : "Sphere001_1092.001",
            "pbrMetallicRoughness" : {
                "baseColorFactor" : [
                    0.6399999260902405,
                    0.6399999260902405,
                    0.6399999260902405,
                    1
                ],
                "baseColorTexture" : {
                    "index" : 1,
                    "texCoord" : 0
                },
                "metallicFactor" : 0,
                "roughnessFactor" : 0.5
            }
        }
    ],
    "meshes" : [
        {
            "name" : "mesh_default_12092default.000",
            "primitives" : [
                {
                    "attributes" : {
                        "POSITION" : 0,
                        "NORMAL" : 1,
                        "TEXCOORD_0" : 2,
                        "TEXCOORD_1" : 3
                    },
                    "indices" : 4,
                    "material" : 0
                },
                {
                    "attributes" : {
                        "POSITION" : 5,
                        "NORMAL" : 6,
                        "TEXCOORD_0" : 7,
                        "TEXCOORD_1" : 8
                    },
                    "indices" : 9,
                    "material" : 1
                }
            ]
        }
    ],
    "textures" : [
        {
            "source" : 0
        },
        {
            "source" : 1
        }
    ],
    "images" : [
        {
            "mimeType" : "image/jpeg",
            "name" : "Image_6",
            "uri" : "Image_6.jpg"
        },
        {
            "mimeType" : "image/jpeg",
            "name" : "Image_7",
            "uri" : "Image_7.jpg"
        }
    ],
    "accessors" : [
        {
            "bufferView" : 0,
            "componentType" : 5126,
            "count" : 624,
            "max" : [
                0.6361532211303711,
                0.5014609098434448,
                1.7862510681152344
            ],
            "min" : [
                -0.6491928100585938,
                -0.4457390308380127,
                -1.7170569896697998
            ],
            "type" : "VEC3"
        },
        {
            "bufferView" : 1,
            "componentType" : 5126,
            "count" : 624,
            "type" : "VEC3"
        },
        {
            "bufferView" : 2,
            "componentType" : 5126,
            "count" : 624,
            "type" : "VEC2"
        },
        {
            "bufferView" : 3,
            "componentType" : 5126,
            "count" : 624,
            "type" : "VEC2"
        },
        {
            "bufferView" : 4,
            "componentType" : 5123,
            "count" : 696,
            "type" : "SCALAR"
        },
        {
            "bufferView" : 5,
            "componentType" : 5126,
            "count" : 1326,
            "max" : [
                0.5161352157592773,
                0.3238009214401245,
                0.45232105255126953
            ],
            "min" : [
                -0.4610929489135742,
                -0.26779913902282715,
                -1.2689119577407837
            ],
            "type" : "VEC3"
        },
        {
            "bufferView" : 6,
            "componentType" : 5126,
            "count" : 1326,
            "type" : "VEC3"
        },
        {
            "bufferView" : 7,
            "componentType" : 5126,
            "count" : 1326,
            "type" : "VEC2"
        },
        {
            "bufferView" : 8,
            "componentType" : 5126,
            "count" : 1326,
            "type" : "VEC2"
        },
        {
            "bufferView" : 9,
            "componentType" : 5123,
            "count" : 2592,
            "type" : "SCALAR"
        }
    ],
    "bufferViews" : [
        {
            "buffer" : 0,
            "byteLength" : 7488,
            "byteOffset" : 0
        },
        {
            "buffer" : 0,
            "byteLength" : 7488,
            "byteOffset" : 7488
        },
        {
            "buffer" : 0,
            "byteLength" : 4992,
            "byteOffset" : 14976
        },
        {
            "buffer" : 0,
            "byteLength" : 4992,
            "byteOffset" : 19968
        },
        {
            "buffer" : 0,
            "byteLength" : 1392,
            "byteOffset" : 24960
        },
        {
            "buffer" : 0,
            "byteLength" : 15912,
            "byteOffset" : 26352
        },
        {
            "buffer" : 0,
            "byteLength" : 15912,
            "byteOffset" : 42264
        },
        {
            "buffer" : 0,
            "byteLength" : 10608,
            "byteOffset" : 58176
        },
        {
            "buffer" : 0,
            "byteLength" : 10608,
            "byteOffset" : 68784
        },
        {
            "buffer" : 0,
            "byteLength" : 5184,
            "byteOffset" : 79392
        }
    ],
    "buffers" : [
        {
            "byteLength" : 84576,
            "uri" : "bookshelf2.bin"
        }
    ]
}
