{
    "asset" : {
        "generator" : "Khronos glTF Blender I/O v0.9.35",
        "version" : "2.0"
    },
    "scene" : 0,
    "scenes" : [
        {
            "name" : "Scene",
            "nodes" : [
                0
            ]
        }
    ],
    "nodes" : [
        {
            "mesh" : 0,
            "name" : "node_default_-1214.005",
            "rotation" : [
                0,
                -0.7071067094802856,
                -0.7071068286895752,
                0
            ],
            "translation" : [
                0,
                1.5513254404067993,
                0
            ]
        }
    ],
    "materials" : [
        {
            "emissiveFactor" : [
                0,
                0,
                0
            ],
            "name" : "Box012_795.007",
            "pbrMetallicRoughness" : {
                "baseColorFactor" : [
                    0.6399999260902405,
                    0.6399999260902405,
                    0.6399999260902405,
                    1
                ],
                "baseColorTexture" : {
                    "index" : 0,
                    "texCoord" : 0
                },
                "metallicFactor" : 0,
                "roughnessFactor" : 0.5
            }
        },
        {
            "emissiveFactor" : [
                0,
                0,
                0
            ],
            "name" : "Sphere001_1092.003",
            "pbrMetallicRoughness" : {
                "baseColorFactor" : [
                    0.6399999260902405,
                    0.6399999260902405,
                    0.6399999260902405,
                    1
                ],
                "baseColorTexture" : {
                    "index" : 1,
                    "texCoord" : 0
                },
                "metallicFactor" : 0,
                "roughnessFactor" : 0.5
            }
        },
        {
            "emissiveFactor" : [
                0,
                0,
                0
            ],
            "name" : "box.001",
            "pbrMetallicRoughness" : {
                "baseColorFactor" : [
                    0.6399999260902405,
                    0.6399999260902405,
                    0.6399999260902405,
                    1
                ],
                "baseColorTexture" : {
                    "index" : 2,
                    "texCoord" : 0
                },
                "metallicFactor" : 0,
                "roughnessFactor" : 0.5
            }
        }
    ],
    "meshes" : [
        {
            "name" : "mesh_default_12092default.003",
            "primitives" : [
                {
                    "attributes" : {
                        "POSITION" : 0,
                        "NORMAL" : 1,
                        "TEXCOORD_0" : 2,
                        "TEXCOORD_1" : 3
                    },
                    "indices" : 4,
                    "material" : 0
                },
                {
                    "attributes" : {
                        "POSITION" : 5,
                        "NORMAL" : 6,
                        "TEXCOORD_0" : 7,
                        "TEXCOORD_1" : 8
                    },
                    "indices" : 9,
                    "material" : 1
                },
                {
                    "attributes" : {
                        "POSITION" : 10,
                        "NORMAL" : 11,
                        "TEXCOORD_0" : 12,
                        "TEXCOORD_1" : 13
                    },
                    "indices" : 14,
                    "material" : 2
                }
            ]
        }
    ],
    "textures" : [
        {
            "source" : 0
        },
        {
            "source" : 1
        },
        {
            "source" : 2
        }
    ],
    "images" : [
        {
            "mimeType" : "image/png",
            "name" : "Image_6.jpg",
            "uri" : "Image_6_jpg.png"
        },
        {
            "mimeType" : "image/png",
            "name" : "Image_7",
            "uri" : "Image_7.png"
        },
        {
            "mimeType" : "image/png",
            "name" : "Image_6",
            "uri" : "Image_6.png"
        }
    ],
    "accessors" : [
        {
            "bufferView" : 0,
            "componentType" : 5126,
            "count" : 1128,
            "max" : [
                0.9752483367919922,
                0.18927347660064697,
                1.0735125541687012
            ],
            "min" : [
                -0.8162517547607422,
                -0.4818265438079834,
                -1.5993174314498901
            ],
            "type" : "VEC3"
        },
        {
            "bufferView" : 1,
            "componentType" : 5126,
            "count" : 1128,
            "type" : "VEC3"
        },
        {
            "bufferView" : 2,
            "componentType" : 5126,
            "count" : 1128,
            "type" : "VEC2"
        },
        {
            "bufferView" : 3,
            "componentType" : 5126,
            "count" : 1128,
            "type" : "VEC2"
        },
        {
            "bufferView" : 4,
            "componentType" : 5123,
            "count" : 1770,
            "type" : "SCALAR"
        },
        {
            "bufferView" : 5,
            "componentType" : 5126,
            "count" : 995,
            "max" : [
                0.870147705078125,
                0.46998345851898193,
                0.9139635562896729
            ],
            "min" : [
                -0.8211517333984375,
                -0.6424055099487305,
                -1.317678451538086
            ],
            "type" : "VEC3"
        },
        {
            "bufferView" : 6,
            "componentType" : 5126,
            "count" : 995,
            "type" : "VEC3"
        },
        {
            "bufferView" : 7,
            "componentType" : 5126,
            "count" : 995,
            "type" : "VEC2"
        },
        {
            "bufferView" : 8,
            "componentType" : 5126,
            "count" : 995,
            "type" : "VEC2"
        },
        {
            "bufferView" : 9,
            "componentType" : 5123,
            "count" : 2016,
            "type" : "SCALAR"
        },
        {
            "bufferView" : 10,
            "componentType" : 5126,
            "count" : 58,
            "max" : [
                0.9752483367919922,
                0.18058443069458008,
                1.0735125541687012
            ],
            "min" : [
                -0.8162517547607422,
                -0.4818265438079834,
                -1.599318504333496
            ],
            "type" : "VEC3"
        },
        {
            "bufferView" : 11,
            "componentType" : 5126,
            "count" : 58,
            "type" : "VEC3"
        },
        {
            "bufferView" : 12,
            "componentType" : 5126,
            "count" : 58,
            "type" : "VEC2"
        },
        {
            "bufferView" : 13,
            "componentType" : 5126,
            "count" : 58,
            "type" : "VEC2"
        },
        {
            "bufferView" : 14,
            "componentType" : 5123,
            "count" : 78,
            "type" : "SCALAR"
        }
    ],
    "bufferViews" : [
        {
            "buffer" : 0,
            "byteLength" : 13536,
            "byteOffset" : 0
        },
        {
            "buffer" : 0,
            "byteLength" : 13536,
            "byteOffset" : 13536
        },
        {
            "buffer" : 0,
            "byteLength" : 9024,
            "byteOffset" : 27072
        },
        {
            "buffer" : 0,
            "byteLength" : 9024,
            "byteOffset" : 36096
        },
        {
            "buffer" : 0,
            "byteLength" : 3540,
            "byteOffset" : 45120
        },
        {
            "buffer" : 0,
            "byteLength" : 11940,
            "byteOffset" : 48660
        },
        {
            "buffer" : 0,
            "byteLength" : 11940,
            "byteOffset" : 60600
        },
        {
            "buffer" : 0,
            "byteLength" : 7960,
            "byteOffset" : 72540
        },
        {
            "buffer" : 0,
            "byteLength" : 7960,
            "byteOffset" : 80500
        },
        {
            "buffer" : 0,
            "byteLength" : 4032,
            "byteOffset" : 88460
        },
        {
            "buffer" : 0,
            "byteLength" : 696,
            "byteOffset" : 92492
        },
        {
            "buffer" : 0,
            "byteLength" : 696,
            "byteOffset" : 93188
        },
        {
            "buffer" : 0,
            "byteLength" : 464,
            "byteOffset" : 93884
        },
        {
            "buffer" : 0,
            "byteLength" : 464,
            "byteOffset" : 94348
        },
        {
            "buffer" : 0,
            "byteLength" : 156,
            "byteOffset" : 94812
        }
    ],
    "buffers" : [
        {
            "byteLength" : 94968,
            "uri" : "bookshelf3.bin"
        }
    ]
}
