{
    "asset" : {
        "generator" : "Khronos glTF Blender I/O v0.9.35",
        "version" : "2.0"
    },
    "scene" : 0,
    "scenes" : [
        {
            "name" : "Scene",
            "nodes" : [
                0
            ]
        }
    ],
    "nodes" : [
        {
            "mesh" : 0,
            "name" : "Hackers_merged_out.004",
            "rotation" : [
                0,
                0.6402933597564697,
                0,
                0.7681306004524231
            ],
            "scale" : [
                0.8648892641067505,
                0.86488938331604,
                0.8648889064788818
            ],
            "translation" : [
                0.42467018961906433,
                0.5051289200782776,
                -0.17004334926605225
            ]
        }
    ],
    "materials" : [
        {
            "doubleSided" : true,
            "name" : "Box012_795.001",
            "pbrMetallicRoughness" : {
                "baseColorTexture" : {
                    "index" : 0,
                    "texCoord" : 0
                },
                "metallicFactor" : 0,
                "roughnessFactor" : 0.5
            }
        }
    ],
    "meshes" : [
        {
            "name" : "Hackers_merged_out.001",
            "primitives" : [
                {
                    "attributes" : {
                        "POSITION" : 0,
                        "NORMAL" : 1,
                        "TEXCOORD_0" : 2
                    },
                    "indices" : 3,
                    "material" : 0
                }
            ]
        }
    ],
    "textures" : [
        {
            "source" : 0
        }
    ],
    "images" : [
        {
            "mimeType" : "image/jpeg",
            "name" : "Image_6",
            "uri" : "Image_6.jpg"
        }
    ],
    "accessors" : [
        {
            "bufferView" : 0,
            "componentType" : 5126,
            "count" : 2069,
            "max" : [
                2.082432746887207,
                1.6687315702438354,
                2.019059658050537
            ],
            "min" : [
                -2.622267246246338,
                -0.5885083079338074,
                -2.791881561279297
            ],
            "type" : "VEC3"
        },
        {
            "bufferView" : 1,
            "componentType" : 5126,
            "count" : 2069,
            "type" : "VEC3"
        },
        {
            "bufferView" : 2,
            "componentType" : 5126,
            "count" : 2069,
            "type" : "VEC2"
        },
        {
            "bufferView" : 3,
            "componentType" : 5123,
            "count" : 3486,
            "type" : "SCALAR"
        }
    ],
    "bufferViews" : [
        {
            "buffer" : 0,
            "byteLength" : 24828,
            "byteOffset" : 0
        },
        {
            "buffer" : 0,
            "byteLength" : 24828,
            "byteOffset" : 24828
        },
        {
            "buffer" : 0,
            "byteLength" : 16552,
            "byteOffset" : 49656
        },
        {
            "buffer" : 0,
            "byteLength" : 6972,
            "byteOffset" : 66208
        }
    ],
    "buffers" : [
        {
            "byteLength" : 73180,
            "uri" : "boxes.bin"
        }
    ]
}
