{
    "asset" : {
        "generator" : "Khronos glTF Blender I/O v0.9.35",
        "version" : "2.0"
    },
    "scene" : 0,
    "scenes" : [
        {
            "name" : "Scene",
            "nodes" : [
                0
            ]
        }
    ],
    "nodes" : [
        {
            "mesh" : 0,
            "name" : "node_default_-1214.010",
            "rotation" : [
                0,
                -0.7071067094802856,
                -0.7071068286895752,
                -3.0908619663705394e-08
            ],
            "translation" : [
                0,
                0.7149441242218018,
                0
            ]
        }
    ],
    "materials" : [
        {
            "emissiveFactor" : [
                0,
                0,
                0
            ],
            "name" : "Box012_795",
            "pbrMetallicRoughness" : {
                "baseColorFactor" : [
                    0.6399999260902405,
                    0.6399999260902405,
                    0.6399999260902405,
                    1
                ],
                "baseColorTexture" : {
                    "index" : 0,
                    "texCoord" : 0
                },
                "metallicFactor" : 0,
                "roughnessFactor" : 0.5
            }
        }
    ],
    "meshes" : [
        {
            "name" : "mesh_default_12092default.011",
            "primitives" : [
                {
                    "attributes" : {
                        "POSITION" : 0,
                        "NORMAL" : 1,
                        "TEXCOORD_0" : 2,
                        "TEXCOORD_1" : 3
                    },
                    "indices" : 4,
                    "material" : 0
                }
            ]
        }
    ],
    "textures" : [
        {
            "source" : 0
        }
    ],
    "images" : [
        {
            "mimeType" : "image/jpeg",
            "name" : "Image_6",
            "uri" : "Image_6.jpg"
        }
    ],
    "accessors" : [
        {
            "bufferView" : 0,
            "componentType" : 5126,
            "count" : 654,
            "max" : [
                1.1739025115966797,
                0.8934392929077148,
                0.9171470403671265
            ],
            "min" : [
                -1.1991968154907227,
                -0.7624049186706543,
                -1.1610510349273682
            ],
            "type" : "VEC3"
        },
        {
            "bufferView" : 1,
            "componentType" : 5126,
            "count" : 654,
            "type" : "VEC3"
        },
        {
            "bufferView" : 2,
            "componentType" : 5126,
            "count" : 654,
            "type" : "VEC2"
        },
        {
            "bufferView" : 3,
            "componentType" : 5126,
            "count" : 654,
            "type" : "VEC2"
        },
        {
            "bufferView" : 4,
            "componentType" : 5123,
            "count" : 960,
            "type" : "SCALAR"
        }
    ],
    "bufferViews" : [
        {
            "buffer" : 0,
            "byteLength" : 7848,
            "byteOffset" : 0
        },
        {
            "buffer" : 0,
            "byteLength" : 7848,
            "byteOffset" : 7848
        },
        {
            "buffer" : 0,
            "byteLength" : 5232,
            "byteOffset" : 15696
        },
        {
            "buffer" : 0,
            "byteLength" : 5232,
            "byteOffset" : 20928
        },
        {
            "buffer" : 0,
            "byteLength" : 1920,
            "byteOffset" : 26160
        }
    ],
    "buffers" : [
        {
            "byteLength" : 28080,
            "uri" : "flippedtable.bin"
        }
    ]
}
