{
    "asset" : {
        "generator" : "Khronos glTF Blender I/O v0.9.35",
        "version" : "2.0"
    },
    "scene" : 0,
    "scenes" : [
        {
            "name" : "Scene",
            "nodes" : [
                0
            ]
        }
    ],
    "nodes" : [
        {
            "mesh" : 0,
            "name" : "node_default_-1264",
            "rotation" : [
                0,
                -0.7071067094802856,
                -0.7071068286895752,
                -3.0908619663705394e-08
            ],
            "scale" : [
                0.75,
                0.7500001192092896,
                0.7500001192092896
            ]
        }
    ],
    "materials" : [
        {
            "emissiveFactor" : [
                0,
                0,
                0
            ],
            "name" : "Gray.002",
            "pbrMetallicRoughness" : {
                "baseColorFactor" : [
                    0.6399999260902405,
                    0.6399999260902405,
                    0.6399999260902405,
                    1
                ],
                "metallicFactor" : 0,
                "roughnessFactor" : 1
            }
        },
        {
            "emissiveFactor" : [
                0,
                0,
                0
            ],
            "name" : "Wood02.002",
            "pbrMetallicRoughness" : {
                "baseColorFactor" : [
                    0.6399999260902405,
                    0.6399999260902405,
                    0.6399999260902405,
                    1
                ],
                "baseColorTexture" : {
                    "index" : 0,
                    "texCoord" : 0
                },
                "metallicFactor" : 0,
                "roughnessFactor" : 1
            }
        },
        {
            "emissiveFactor" : [
                0,
                0,
                0
            ],
            "name" : "Default_Prototype.001",
            "pbrMetallicRoughness" : {
                "baseColorFactor" : [
                    0.6399999260902405,
                    0.6399999260902405,
                    0.6399999260902405,
                    1
                ],
                "metallicFactor" : 0,
                "roughnessFactor" : 1
            }
        },
        {
            "emissiveFactor" : [
                0,
                0,
                0
            ],
            "name" : "Chrome.001",
            "pbrMetallicRoughness" : {
                "baseColorFactor" : [
                    0.6399999260902405,
                    0.6399999260902405,
                    0.6399999260902405,
                    1
                ],
                "metallicFactor" : 0,
                "roughnessFactor" : 1
            }
        }
    ],
    "meshes" : [
        {
            "name" : "mesh_default_12106default.002",
            "primitives" : [
                {
                    "attributes" : {
                        "POSITION" : 0,
                        "NORMAL" : 1,
                        "TEXCOORD_0" : 2
                    },
                    "indices" : 3,
                    "material" : 0
                },
                {
                    "attributes" : {
                        "POSITION" : 4,
                        "NORMAL" : 5,
                        "TEXCOORD_0" : 6
                    },
                    "indices" : 7,
                    "material" : 1
                },
                {
                    "attributes" : {
                        "POSITION" : 8,
                        "NORMAL" : 9,
                        "TEXCOORD_0" : 10
                    },
                    "indices" : 11,
                    "material" : 2
                },
                {
                    "attributes" : {
                        "POSITION" : 12,
                        "NORMAL" : 13,
                        "TEXCOORD_0" : 14
                    },
                    "indices" : 15,
                    "material" : 3
                }
            ]
        }
    ],
    "textures" : [
        {
            "source" : 0
        }
    ],
    "images" : [
        {
            "mimeType" : "image/jpeg",
            "name" : "wood",
            "uri" : "wood.jpg"
        }
    ],
    "accessors" : [
        {
            "bufferView" : 0,
            "componentType" : 5126,
            "count" : 765,
            "max" : [
                2.2699239253997803,
                -1.8849949836730957,
                0.28418299555778503
            ],
            "min" : [
                0.880075991153717,
                -3.1090049743652344,
                0.016222000122070312
            ],
            "type" : "VEC3"
        },
        {
            "bufferView" : 1,
            "componentType" : 5126,
            "count" : 765,
            "type" : "VEC3"
        },
        {
            "bufferView" : 2,
            "componentType" : 5126,
            "count" : 765,
            "type" : "VEC2"
        },
        {
            "bufferView" : 3,
            "componentType" : 5123,
            "count" : 900,
            "type" : "SCALAR"
        },
        {
            "bufferView" : 4,
            "componentType" : 5126,
            "count" : 2369,
            "max" : [
                2.5055060386657715,
                3.5066049098968506,
                2.3954529762268066
            ],
            "min" : [
                -2.5055060386657715,
                -3.506603956222534,
                0.024752000346779823
            ],
            "type" : "VEC3"
        },
        {
            "bufferView" : 5,
            "componentType" : 5126,
            "count" : 2369,
            "type" : "VEC3"
        },
        {
            "bufferView" : 6,
            "componentType" : 5126,
            "count" : 2369,
            "type" : "VEC2"
        },
        {
            "bufferView" : 7,
            "componentType" : 5123,
            "count" : 2802,
            "type" : "SCALAR"
        },
        {
            "bufferView" : 8,
            "componentType" : 5126,
            "count" : 62,
            "max" : [
                0.6873959898948669,
                -1.8673709630966187,
                1.427170991897583
            ],
            "min" : [
                0.6585389971733093,
                -3.1777589321136475,
                0.41690298914909363
            ],
            "type" : "VEC3"
        },
        {
            "bufferView" : 9,
            "componentType" : 5126,
            "count" : 62,
            "type" : "VEC3"
        },
        {
            "bufferView" : 10,
            "componentType" : 5126,
            "count" : 62,
            "type" : "VEC2"
        },
        {
            "bufferView" : 11,
            "componentType" : 5123,
            "count" : 96,
            "type" : "SCALAR"
        },
        {
            "bufferView" : 12,
            "componentType" : 5126,
            "count" : 821,
            "max" : [
                0.6635770201683044,
                -2.2496531009674072,
                2.115900993347168
            ],
            "min" : [
                0.5528349876403809,
                -2.8093950748443604,
                0.9144269824028015
            ],
            "type" : "VEC3"
        },
        {
            "bufferView" : 13,
            "componentType" : 5126,
            "count" : 821,
            "type" : "VEC3"
        },
        {
            "bufferView" : 14,
            "componentType" : 5126,
            "count" : 821,
            "type" : "VEC2"
        },
        {
            "bufferView" : 15,
            "componentType" : 5123,
            "count" : 864,
            "type" : "SCALAR"
        }
    ],
    "bufferViews" : [
        {
            "buffer" : 0,
            "byteLength" : 9180,
            "byteOffset" : 0
        },
        {
            "buffer" : 0,
            "byteLength" : 9180,
            "byteOffset" : 9180
        },
        {
            "buffer" : 0,
            "byteLength" : 6120,
            "byteOffset" : 18360
        },
        {
            "buffer" : 0,
            "byteLength" : 1800,
            "byteOffset" : 24480
        },
        {
            "buffer" : 0,
            "byteLength" : 28428,
            "byteOffset" : 26280
        },
        {
            "buffer" : 0,
            "byteLength" : 28428,
            "byteOffset" : 54708
        },
        {
            "buffer" : 0,
            "byteLength" : 18952,
            "byteOffset" : 83136
        },
        {
            "buffer" : 0,
            "byteLength" : 5604,
            "byteOffset" : 102088
        },
        {
            "buffer" : 0,
            "byteLength" : 744,
            "byteOffset" : 107692
        },
        {
            "buffer" : 0,
            "byteLength" : 744,
            "byteOffset" : 108436
        },
        {
            "buffer" : 0,
            "byteLength" : 496,
            "byteOffset" : 109180
        },
        {
            "buffer" : 0,
            "byteLength" : 192,
            "byteOffset" : 109676
        },
        {
            "buffer" : 0,
            "byteLength" : 9852,
            "byteOffset" : 109868
        },
        {
            "buffer" : 0,
            "byteLength" : 9852,
            "byteOffset" : 119720
        },
        {
            "buffer" : 0,
            "byteLength" : 6568,
            "byteOffset" : 129572
        },
        {
            "buffer" : 0,
            "byteLength" : 1728,
            "byteOffset" : 136140
        }
    ],
    "buffers" : [
        {
            "byteLength" : 137868,
            "uri" : "Ltable.bin"
        }
    ]
}
