{
    "asset" : {
        "generator" : "Khronos glTF Blender I/O v0.9.35",
        "version" : "2.0"
    },
    "scene" : 0,
    "scenes" : [
        {
            "name" : "Scene",
            "nodes" : [
                0
            ]
        }
    ],
    "nodes" : [
        {
            "mesh" : 0,
            "name" : "Hackers_merged_out.003",
            "rotation" : [
                0.5,
                0.5000000596046448,
                -0.5,
                0.4999999403953552
            ],
            "translation" : [
                0,
                1.5652204751968384,
                0
            ]
        }
    ],
    "materials" : [
        {
            "doubleSided" : true,
            "name" : "Box012_795.027",
            "pbrMetallicRoughness" : {
                "baseColorTexture" : {
                    "index" : 0,
                    "texCoord" : 0
                },
                "metallicFactor" : 0,
                "roughnessFactor" : 0.5
            }
        },
        {
            "doubleSided" : true,
            "name" : "Sphere001_1092.018",
            "pbrMetallicRoughness" : {
                "baseColorTexture" : {
                    "index" : 1,
                    "texCoord" : 0
                },
                "metallicFactor" : 0,
                "roughnessFactor" : 0.5
            }
        }
    ],
    "meshes" : [
        {
            "name" : "Hackers_merged_out.013",
            "primitives" : [
                {
                    "attributes" : {
                        "POSITION" : 0,
                        "NORMAL" : 1,
                        "TEXCOORD_0" : 2
                    },
                    "indices" : 3,
                    "material" : 0
                },
                {
                    "attributes" : {
                        "POSITION" : 4,
                        "NORMAL" : 5,
                        "TEXCOORD_0" : 6
                    },
                    "indices" : 7,
                    "material" : 1
                }
            ]
        }
    ],
    "textures" : [
        {
            "source" : 0
        },
        {
            "source" : 1
        }
    ],
    "images" : [
        {
            "mimeType" : "image/jpeg",
            "name" : "Image_6",
            "uri" : "Image_6.jpg"
        },
        {
            "mimeType" : "image/jpeg",
            "name" : "Image_7",
            "uri" : "Image_7.jpg"
        }
    ],
    "accessors" : [
        {
            "bufferView" : 0,
            "componentType" : 5126,
            "count" : 11871,
            "max" : [
                0.5620534420013428,
                0.30269575119018555,
                1.9123722314834595
            ],
            "min" : [
                -1.755746603012085,
                -0.9642943143844604,
                -1.5909359455108643
            ],
            "type" : "VEC3"
        },
        {
            "bufferView" : 1,
            "componentType" : 5126,
            "count" : 11871,
            "type" : "VEC3"
        },
        {
            "bufferView" : 2,
            "componentType" : 5126,
            "count" : 11871,
            "type" : "VEC2"
        },
        {
            "bufferView" : 3,
            "componentType" : 5123,
            "count" : 18282,
            "type" : "SCALAR"
        },
        {
            "bufferView" : 4,
            "componentType" : 5126,
            "count" : 120,
            "max" : [
                0.3930833339691162,
                0.11009562760591507,
                1.402275800704956
            ],
            "min" : [
                -1.5902764797210693,
                -1.0545841455459595,
                -0.16242477297782898
            ],
            "type" : "VEC3"
        },
        {
            "bufferView" : 5,
            "componentType" : 5126,
            "count" : 120,
            "type" : "VEC3"
        },
        {
            "bufferView" : 6,
            "componentType" : 5126,
            "count" : 120,
            "type" : "VEC2"
        },
        {
            "bufferView" : 7,
            "componentType" : 5123,
            "count" : 264,
            "type" : "SCALAR"
        }
    ],
    "bufferViews" : [
        {
            "buffer" : 0,
            "byteLength" : 142452,
            "byteOffset" : 0
        },
        {
            "buffer" : 0,
            "byteLength" : 142452,
            "byteOffset" : 142452
        },
        {
            "buffer" : 0,
            "byteLength" : 94968,
            "byteOffset" : 284904
        },
        {
            "buffer" : 0,
            "byteLength" : 36564,
            "byteOffset" : 379872
        },
        {
            "buffer" : 0,
            "byteLength" : 1440,
            "byteOffset" : 416436
        },
        {
            "buffer" : 0,
            "byteLength" : 1440,
            "byteOffset" : 417876
        },
        {
            "buffer" : 0,
            "byteLength" : 960,
            "byteOffset" : 419316
        },
        {
            "buffer" : 0,
            "byteLength" : 528,
            "byteOffset" : 420276
        }
    ],
    "buffers" : [
        {
            "byteLength" : 420804,
            "uri" : "pcshelf.bin"
        }
    ]
}
