{
    "asset" : {
        "generator" : "Khronos glTF Blender I/O v0.9.35",
        "version" : "2.0"
    },
    "scene" : 0,
    "scenes" : [
        {
            "name" : "Scene",
            "nodes" : [
                0
            ]
        }
    ],
    "nodes" : [
        {
            "mesh" : 0,
            "name" : "node_default_-1214.001",
            "rotation" : [
                0,
                -0.7071067094802856,
                -0.7071068286895752,
                -3.0908619663705394e-08
            ],
            "translation" : [
                0,
                2.072848320007324,
                0
            ]
        }
    ],
    "materials" : [
        {
            "emissiveFactor" : [
                0,
                0,
                0
            ],
            "name" : "Box012_795.002",
            "pbrMetallicRoughness" : {
                "baseColorFactor" : [
                    0.6399999260902405,
                    0.6399999260902405,
                    0.6399999260902405,
                    1
                ],
                "baseColorTexture" : {
                    "index" : 0,
                    "texCoord" : 0
                },
                "metallicFactor" : 0,
                "roughnessFactor" : 0.5
            }
        }
    ],
    "meshes" : [
        {
            "name" : "mesh_default_12092default.001",
            "primitives" : [
                {
                    "attributes" : {
                        "POSITION" : 0,
                        "NORMAL" : 1,
                        "TEXCOORD_0" : 2,
                        "TEXCOORD_1" : 3
                    },
                    "indices" : 4,
                    "material" : 0
                }
            ]
        }
    ],
    "textures" : [
        {
            "source" : 0
        }
    ],
    "images" : [
        {
            "mimeType" : "image/jpeg",
            "name" : "Image_6",
            "uri" : "Image_6.jpg"
        }
    ],
    "accessors" : [
        {
            "bufferView" : 0,
            "componentType" : 5126,
            "count" : 1738,
            "max" : [
                0.4973210096359253,
                0.2049034833908081,
                0.9653298854827881
            ],
            "min" : [
                -0.406823992729187,
                -0.28537654876708984,
                -2.0932302474975586
            ],
            "type" : "VEC3"
        },
        {
            "bufferView" : 1,
            "componentType" : 5126,
            "count" : 1738,
            "type" : "VEC3"
        },
        {
            "bufferView" : 2,
            "componentType" : 5126,
            "count" : 1738,
            "type" : "VEC2"
        },
        {
            "bufferView" : 3,
            "componentType" : 5126,
            "count" : 1738,
            "type" : "VEC2"
        },
        {
            "bufferView" : 4,
            "componentType" : 5123,
            "count" : 2856,
            "type" : "SCALAR"
        }
    ],
    "bufferViews" : [
        {
            "buffer" : 0,
            "byteLength" : 20856,
            "byteOffset" : 0
        },
        {
            "buffer" : 0,
            "byteLength" : 20856,
            "byteOffset" : 20856
        },
        {
            "buffer" : 0,
            "byteLength" : 13904,
            "byteOffset" : 41712
        },
        {
            "buffer" : 0,
            "byteLength" : 13904,
            "byteOffset" : 55616
        },
        {
            "buffer" : 0,
            "byteLength" : 5712,
            "byteOffset" : 69520
        }
    ],
    "buffers" : [
        {
            "byteLength" : 75232,
            "uri" : "phonebooth.bin"
        }
    ]
}
