{
    "asset" : {
        "generator" : "Khronos glTF Blender I/O v0.9.35",
        "version" : "2.0"
    },
    "scene" : 0,
    "scenes" : [
        {
            "name" : "Scene",
            "nodes" : [
                0
            ]
        }
    ],
    "nodes" : [
        {
            "mesh" : 0,
            "name" : "node_chair_12842",
            "rotation" : [
                0,
                1,
                0,
                2.1855690590655286e-08
            ],
            "translation" : [
                0,
                0.3833286464214325,
                0
            ]
        }
    ],
    "materials" : [
        {
            "emissiveFactor" : [
                0,
                0,
                0
            ],
            "name" : "Box012_795.003",
            "pbrMetallicRoughness" : {
                "baseColorFactor" : [
                    0.800000011920929,
                    0.800000011920929,
                    0.800000011920929,
                    1
                ],
                "baseColorTexture" : {
                    "index" : 0,
                    "texCoord" : 0
                },
                "metallicFactor" : 0,
                "roughnessFactor" : 1
            }
        }
    ],
    "meshes" : [
        {
            "name" : "mesh_Hackers_merged_out_001_12228chair",
            "primitives" : [
                {
                    "attributes" : {
                        "POSITION" : 0,
                        "NORMAL" : 1,
                        "TEXCOORD_0" : 2
                    },
                    "indices" : 3,
                    "material" : 0
                }
            ]
        }
    ],
    "textures" : [
        {
            "source" : 0
        }
    ],
    "images" : [
        {
            "mimeType" : "image/jpeg",
            "name" : "Image_6",
            "uri" : "Image_6.jpg"
        }
    ],
    "accessors" : [
        {
            "bufferView" : 0,
            "componentType" : 5126,
            "count" : 7532,
            "max" : [
                0.7194215655326843,
                0.7496845126152039,
                0.5507850646972656
            ],
            "min" : [
                -0.5528383255004883,
                -0.7260088324546814,
                -0.6974306106567383
            ],
            "type" : "VEC3"
        },
        {
            "bufferView" : 1,
            "componentType" : 5126,
            "count" : 7532,
            "type" : "VEC3"
        },
        {
            "bufferView" : 2,
            "componentType" : 5126,
            "count" : 7532,
            "type" : "VEC2"
        },
        {
            "bufferView" : 3,
            "componentType" : 5123,
            "count" : 20604,
            "type" : "SCALAR"
        }
    ],
    "bufferViews" : [
        {
            "buffer" : 0,
            "byteLength" : 90384,
            "byteOffset" : 0
        },
        {
            "buffer" : 0,
            "byteLength" : 90384,
            "byteOffset" : 90384
        },
        {
            "buffer" : 0,
            "byteLength" : 60256,
            "byteOffset" : 180768
        },
        {
            "buffer" : 0,
            "byteLength" : 41208,
            "byteOffset" : 241024
        }
    ],
    "buffers" : [
        {
            "byteLength" : 282232,
            "uri" : "thechair.bin"
        }
    ]
}
