{
    "asset" : {
        "generator" : "Khronos glTF Blender I/O v0.9.35",
        "version" : "2.0"
    },
    "scene" : 0,
    "scenes" : [
        {
            "name" : "Scene",
            "nodes" : [
                0
            ]
        }
    ],
    "nodes" : [
        {
            "mesh" : 0,
            "name" : "node_default_-1214.008",
            "rotation" : [
                0,
                -0.7071067094802856,
                -0.7071068286895752,
                -3.090859834742332e-08
            ],
            "translation" : [
                0,
                0.8957756757736206,
                0
            ]
        }
    ],
    "materials" : [
        {
            "emissiveFactor" : [
                0,
                0,
                0
            ],
            "name" : "Box012_795.005",
            "pbrMetallicRoughness" : {
                "baseColorFactor" : [
                    0.6399999260902405,
                    0.6399999260902405,
                    0.6399999260902405,
                    1
                ],
                "baseColorTexture" : {
                    "index" : 0,
                    "texCoord" : 0
                },
                "metallicFactor" : 0,
                "roughnessFactor" : 0.5
            }
        },
        {
            "emissiveFactor" : [
                0,
                0,
                0
            ],
            "name" : "Sphere001_1092.002",
            "pbrMetallicRoughness" : {
                "baseColorFactor" : [
                    0.6399999260902405,
                    0.6399999260902405,
                    0.6399999260902405,
                    1
                ],
                "baseColorTexture" : {
                    "index" : 1,
                    "texCoord" : 0
                },
                "metallicFactor" : 0,
                "roughnessFactor" : 0.5
            }
        },
        {
            "emissiveFactor" : [
                0,
                0,
                0
            ],
            "name" : "Metal",
            "pbrMetallicRoughness" : {
                "baseColorFactor" : [
                    0,
                    0,
                    0,
                    1
                ],
                "metallicFactor" : 0,
                "roughnessFactor" : 0.5
            }
        }
    ],
    "meshes" : [
        {
            "name" : "mesh_default_12092default.008",
            "primitives" : [
                {
                    "attributes" : {
                        "POSITION" : 0,
                        "NORMAL" : 1,
                        "TEXCOORD_0" : 2,
                        "TEXCOORD_1" : 3
                    },
                    "indices" : 4,
                    "material" : 0
                },
                {
                    "attributes" : {
                        "POSITION" : 5,
                        "NORMAL" : 6,
                        "TEXCOORD_0" : 7,
                        "TEXCOORD_1" : 8
                    },
                    "indices" : 9,
                    "material" : 1
                },
                {
                    "attributes" : {
                        "POSITION" : 10,
                        "NORMAL" : 11,
                        "TEXCOORD_0" : 12,
                        "TEXCOORD_1" : 13
                    },
                    "indices" : 14,
                    "material" : 2
                }
            ]
        }
    ],
    "textures" : [
        {
            "source" : 0
        },
        {
            "source" : 1
        }
    ],
    "images" : [
        {
            "mimeType" : "image/jpeg",
            "name" : "Image_6",
            "uri" : "Image_6.jpg"
        },
        {
            "mimeType" : "image/jpeg",
            "name" : "Image_7",
            "uri" : "Image_7.jpg"
        }
    ],
    "accessors" : [
        {
            "bufferView" : 0,
            "componentType" : 5126,
            "count" : 22688,
            "max" : [
                2.740091323852539,
                4.703729152679443,
                0.9678389430046082
            ],
            "min" : [
                -1.9323086738586426,
                -2.3475608825683594,
                -1.285494089126587
            ],
            "type" : "VEC3"
        },
        {
            "bufferView" : 1,
            "componentType" : 5126,
            "count" : 22688,
            "type" : "VEC3"
        },
        {
            "bufferView" : 2,
            "componentType" : 5126,
            "count" : 22688,
            "type" : "VEC2"
        },
        {
            "bufferView" : 3,
            "componentType" : 5126,
            "count" : 22688,
            "type" : "VEC2"
        },
        {
            "bufferView" : 4,
            "componentType" : 5123,
            "count" : 34383,
            "type" : "SCALAR"
        },
        {
            "bufferView" : 5,
            "componentType" : 5126,
            "count" : 4735,
            "max" : [
                0.13961541652679443,
                -0.719470739364624,
                0.6662289500236511
            ],
            "min" : [
                -1.898118495941162,
                -3.0229806900024414,
                -0.937717080116272
            ],
            "type" : "VEC3"
        },
        {
            "bufferView" : 6,
            "componentType" : 5126,
            "count" : 4735,
            "type" : "VEC3"
        },
        {
            "bufferView" : 7,
            "componentType" : 5126,
            "count" : 4735,
            "type" : "VEC2"
        },
        {
            "bufferView" : 8,
            "componentType" : 5126,
            "count" : 4735,
            "type" : "VEC2"
        },
        {
            "bufferView" : 9,
            "componentType" : 5123,
            "count" : 8916,
            "type" : "SCALAR"
        },
        {
            "bufferView" : 10,
            "componentType" : 5126,
            "count" : 856,
            "max" : [
                2.9136714935302734,
                4.7782721519470215,
                0.7677988409996033
            ],
            "min" : [
                -0.4931635856628418,
                -0.9537909030914307,
                -1.293058156967163
            ],
            "type" : "VEC3"
        },
        {
            "bufferView" : 11,
            "componentType" : 5126,
            "count" : 856,
            "type" : "VEC3"
        },
        {
            "bufferView" : 12,
            "componentType" : 5126,
            "count" : 856,
            "type" : "VEC2"
        },
        {
            "bufferView" : 13,
            "componentType" : 5126,
            "count" : 856,
            "type" : "VEC2"
        },
        {
            "bufferView" : 14,
            "componentType" : 5123,
            "count" : 1656,
            "type" : "SCALAR"
        }
    ],
    "bufferViews" : [
        {
            "buffer" : 0,
            "byteLength" : 272256,
            "byteOffset" : 0
        },
        {
            "buffer" : 0,
            "byteLength" : 272256,
            "byteOffset" : 272256
        },
        {
            "buffer" : 0,
            "byteLength" : 181504,
            "byteOffset" : 544512
        },
        {
            "buffer" : 0,
            "byteLength" : 181504,
            "byteOffset" : 726016
        },
        {
            "buffer" : 0,
            "byteLength" : 68766,
            "byteOffset" : 907520
        },
        {
            "buffer" : 0,
            "byteLength" : 56820,
            "byteOffset" : 976288
        },
        {
            "buffer" : 0,
            "byteLength" : 56820,
            "byteOffset" : 1033108
        },
        {
            "buffer" : 0,
            "byteLength" : 37880,
            "byteOffset" : 1089928
        },
        {
            "buffer" : 0,
            "byteLength" : 37880,
            "byteOffset" : 1127808
        },
        {
            "buffer" : 0,
            "byteLength" : 17832,
            "byteOffset" : 1165688
        },
        {
            "buffer" : 0,
            "byteLength" : 10272,
            "byteOffset" : 1183520
        },
        {
            "buffer" : 0,
            "byteLength" : 10272,
            "byteOffset" : 1193792
        },
        {
            "buffer" : 0,
            "byteLength" : 6848,
            "byteOffset" : 1204064
        },
        {
            "buffer" : 0,
            "byteLength" : 6848,
            "byteOffset" : 1210912
        },
        {
            "buffer" : 0,
            "byteLength" : 3312,
            "byteOffset" : 1217760
        }
    ],
    "buffers" : [
        {
            "byteLength" : 1221072,
            "uri" : "trash2.bin"
        }
    ]
}
