{
    "asset" : {
        "generator" : "Khronos glTF Blender I/O v0.9.35",
        "version" : "2.0"
    },
    "scene" : 0,
    "scenes" : [
        {
            "name" : "Scene",
            "nodes" : [
                0
            ]
        }
    ],
    "nodes" : [
        {
            "mesh" : 0,
            "name" : "node_default_-1214.002",
            "rotation" : [
                0,
                -0.7071067094802856,
                -0.7071068286895752,
                -3.090859834742332e-08
            ],
            "translation" : [
                0,
                0.6872698664665222,
                -0.4601239264011383
            ]
        }
    ],
    "materials" : [
        {
            "emissiveFactor" : [
                0,
                0,
                0
            ],
            "name" : "Box012_795.004",
            "pbrMetallicRoughness" : {
                "baseColorFactor" : [
                    0.6399999260902405,
                    0.6399999260902405,
                    0.6399999260902405,
                    1
                ],
                "baseColorTexture" : {
                    "index" : 0,
                    "texCoord" : 0
                },
                "metallicFactor" : 0,
                "roughnessFactor" : 0.5
            }
        },
        {
            "emissiveFactor" : [
                0,
                0,
                0
            ],
            "name" : "Sphere001_1092.001",
            "pbrMetallicRoughness" : {
                "baseColorFactor" : [
                    0.6399999260902405,
                    0.6399999260902405,
                    0.6399999260902405,
                    1
                ],
                "baseColorTexture" : {
                    "index" : 1,
                    "texCoord" : 0
                },
                "metallicFactor" : 0,
                "roughnessFactor" : 0.5
            }
        }
    ],
    "meshes" : [
        {
            "name" : "mesh_default_12092default.002",
            "primitives" : [
                {
                    "attributes" : {
                        "POSITION" : 0,
                        "NORMAL" : 1,
                        "TEXCOORD_0" : 2,
                        "TEXCOORD_1" : 3
                    },
                    "indices" : 4,
                    "material" : 0
                },
                {
                    "attributes" : {
                        "POSITION" : 5,
                        "NORMAL" : 6,
                        "TEXCOORD_0" : 7,
                        "TEXCOORD_1" : 8
                    },
                    "indices" : 9,
                    "material" : 1
                }
            ]
        }
    ],
    "textures" : [
        {
            "source" : 0
        },
        {
            "source" : 1
        }
    ],
    "images" : [
        {
            "mimeType" : "image/jpeg",
            "name" : "Image_6",
            "uri" : "Image_6.jpg"
        },
        {
            "mimeType" : "image/jpeg",
            "name" : "Image_7",
            "uri" : "Image_7.jpg"
        }
    ],
    "accessors" : [
        {
            "bufferView" : 0,
            "componentType" : 5126,
            "count" : 9196,
            "max" : [
                0.9763079881668091,
                1.1726901531219482,
                1.155731201171875
            ],
            "min" : [
                -1.1632921695709229,
                -0.6392909288406372,
                -0.7600918412208557
            ],
            "type" : "VEC3"
        },
        {
            "bufferView" : 1,
            "componentType" : 5126,
            "count" : 9196,
            "type" : "VEC3"
        },
        {
            "bufferView" : 2,
            "componentType" : 5126,
            "count" : 9196,
            "type" : "VEC2"
        },
        {
            "bufferView" : 3,
            "componentType" : 5126,
            "count" : 9196,
            "type" : "VEC2"
        },
        {
            "bufferView" : 4,
            "componentType" : 5123,
            "count" : 15153,
            "type" : "SCALAR"
        },
        {
            "bufferView" : 5,
            "componentType" : 5126,
            "count" : 861,
            "max" : [
                3.0482230186462402,
                0.6656092405319214,
                1.0392210483551025
            ],
            "min" : [
                -0.6955161094665527,
                -0.7950907945632935,
                -0.7587898373603821
            ],
            "type" : "VEC3"
        },
        {
            "bufferView" : 6,
            "componentType" : 5126,
            "count" : 861,
            "type" : "VEC3"
        },
        {
            "bufferView" : 7,
            "componentType" : 5126,
            "count" : 861,
            "type" : "VEC2"
        },
        {
            "bufferView" : 8,
            "componentType" : 5126,
            "count" : 861,
            "type" : "VEC2"
        },
        {
            "bufferView" : 9,
            "componentType" : 5123,
            "count" : 1440,
            "type" : "SCALAR"
        }
    ],
    "bufferViews" : [
        {
            "buffer" : 0,
            "byteLength" : 110352,
            "byteOffset" : 0
        },
        {
            "buffer" : 0,
            "byteLength" : 110352,
            "byteOffset" : 110352
        },
        {
            "buffer" : 0,
            "byteLength" : 73568,
            "byteOffset" : 220704
        },
        {
            "buffer" : 0,
            "byteLength" : 73568,
            "byteOffset" : 294272
        },
        {
            "buffer" : 0,
            "byteLength" : 30306,
            "byteOffset" : 367840
        },
        {
            "buffer" : 0,
            "byteLength" : 10332,
            "byteOffset" : 398148
        },
        {
            "buffer" : 0,
            "byteLength" : 10332,
            "byteOffset" : 408480
        },
        {
            "buffer" : 0,
            "byteLength" : 6888,
            "byteOffset" : 418812
        },
        {
            "buffer" : 0,
            "byteLength" : 6888,
            "byteOffset" : 425700
        },
        {
            "buffer" : 0,
            "byteLength" : 2880,
            "byteOffset" : 432588
        }
    ],
    "buffers" : [
        {
            "byteLength" : 435468,
            "uri" : "trash1.bin"
        }
    ]
}
